<svg 
          width="33" 
          height="55" fill="none" 
          xmlns="http://www.w3.org/2000/svg">
          <path
              d="M 16.5 0 C 7.385399723052979 0 0 7.666978509406514 0 17.163850842480862 C 0 33.584738730525345 16.5 55 16.5 55 C 16.5 55 33 33.58129769005061 33 17.163850842480862 C 33 7.670417909728496 25.614600276947023 0 16.5 0 L 16.5 0 Z M 16.5 26.660725635784342 C 14.136921018362045 26.66072563578435 11.870627743005752 25.682271394316523 10.199678707122802 23.940611023102836 C 8.528729671239851 22.19895065188915 7.590000629425046 19.836748942742624 7.590000629425049 17.37366902349659 C 7.590000629425046 14.910589104250553 8.528729671239851 12.548391495485912 10.199678707122802 10.806731124272227 C 11.870627743005752 9.065070753058542 14.136921018362045 8.086616511590725 16.5 8.086616511590721 C 18.863078981637955 8.086616511590721 21.129372256994248 9.065070753058542 22.800321292877197 10.806731124272227 C 24.471270328760145 12.548391495485912 25.40999937057496 14.910589104250553 25.40999937057495 17.37366902349659 C 25.40999937057496 19.836748942742624 24.471270328760145 22.19895065188915 22.800321292877197 23.940611023102836 C 21.129372256994248 25.682271394316523 18.863078981637955 26.66072563578435 16.5 26.660725635784342 Z" fill="rgb(19.0000007674098,168.0000051856041,6.000000117346644)"/>
        </svg>